<svg xmlns="http://www.w3.org/2000/svg" xmlns:xlink="http://www.w3.org/1999/xlink" viewBox="0 0 256 256"><defs><style>.a{fill:none;}.b{clip-path:url(#a);}.c{fill:#db6060;}.d{fill:#db9760;}.e{fill:#d7db60;}.f{fill:#79db60;}.g{fill:#606adb;}.h{fill:#6b4fb8;}.i{fill:#fff;}</style><clipPath id="a"><circle class="a" cx="128" cy="128" r="126.47"/></clipPath></defs><title>logo</title><g class="b"><rect class="c" x="-91.71" y="52.86" width="258.23" height="44.45" transform="translate(-46.32 69.93) rotate(-60)"/><rect class="d" x="-55.05" y="74.03" width="258.23" height="44.45" transform="translate(-46.32 112.27) rotate(-60)"/><rect class="e" x="-18.39" y="95.19" width="258.23" height="44.45" transform="translate(-46.32 154.6) rotate(-60)"/><rect class="f" x="18.27" y="116.36" width="258.23" height="44.45" transform="translate(-46.32 196.93) rotate(-60)"/><rect class="g" x="54.93" y="137.53" width="258.23" height="44.45" transform="translate(-46.32 239.27) rotate(-60)"/><rect class="h" x="91.6" y="158.69" width="258.23" height="44.45" transform="translate(-46.32 281.6) rotate(-60)"/></g><path d="M128,16a112,112,0,0,1,79.2,191.2A112,112,0,0,1,48.8,48.8,111.29,111.29,0,0,1,128,16m0-15A127,127,0,1,0,255,128,127,127,0,0,0,128,1Z"/><polygon class="i" points="100.83 203.14 76.88 203.14 161.04 58.87 184.99 58.87 100.83 203.14"/><polygon points="94.69 197.13 71.01 197.13 155.17 52.86 178.84 52.86 94.69 197.13"/></svg>